<?xml version="1.0" encoding="utf-8"?>
<!-- Svg Vector Icons : http://www.onlinewebfonts.com/icon -->
<!DOCTYPE svg PUBLIC "-//W3C//DTD SVG 1.1//EN" "http://www.w3.org/Graphics/SVG/1.1/DTD/svg11.dtd">
<svg version="1.1" xmlns="http://www.w3.org/2000/svg" xmlns:xlink="http://www.w3.org/1999/xlink" x="0px" y="0px" viewBox="0 0 1000 1000" enable-background="new 0 0 1000 1000" xml:space="preserve">
<metadata> Svg Vector Icons : http://www.onlinewebfonts.com/icon </metadata>
<g><path d="M846.5,153.5c-191.4-191.4-501.6-191.4-693,0c-191.4,191.4-191.4,501.6,0,692.9c191.4,191.4,501.6,191.4,693,0C1037.8,655.1,1037.8,344.9,846.5,153.5z M734.6,265.8c100.9,100.9,122.8,250.6,66.4,373L361.6,199.4C484,143,633.7,164.9,734.6,265.8z M265.8,734.6c-115.1-115.1-127.6-293.7-38-422.9l460.9,460.9C559.5,862.2,380.9,849.7,265.8,734.6z"/></g>
</svg>